<?xml version="1.0" standalone="no"?><!DOCTYPE svg PUBLIC "-//W3C//DTD SVG 1.1//EN" "http://www.w3.org/Graphics/SVG/1.1/DTD/svg11.dtd"><svg t="1626920911510" class="icon" viewBox="0 0 1024 1024" version="1.1" xmlns="http://www.w3.org/2000/svg" p-id="1632" xmlns:xlink="http://www.w3.org/1999/xlink" width="200" height="200"><defs><style type="text/css">@font-face { font-family: feedback-iconfont; src: url("//at.alicdn.com/t/font_1031158_1uhr8ri0pk5.eot?#iefix") format("embedded-opentype"), url("//at.alicdn.com/t/font_1031158_1uhr8ri0pk5.woff2") format("woff2"), url("//at.alicdn.com/t/font_1031158_1uhr8ri0pk5.woff") format("woff"), url("//at.alicdn.com/t/font_1031158_1uhr8ri0pk5.ttf") format("truetype"), url("//at.alicdn.com/t/font_1031158_1uhr8ri0pk5.svg#iconfont") format("svg"); }
</style></defs><path d="M938.1 620.9H95.9c-1.4 0-2.6 1.1-2.6 2.6v284.1c0 1.4 1.1 2.6 2.6 2.6h842.2c1.4 0 2.6-1.1 2.6-2.6V623.5c-0.1-1.4-1.2-2.6-2.6-2.6z" fill="#263FEC" p-id="1633"></path><path d="M487.4 306.6L268.1 500.7c-13.2 11.6-20.7 28.4-20.7 46v363.5h539.1V546.6c0-17.6-7.5-34.3-20.7-46l-219.2-194c-16.9-15-42.3-15-59.2 0z" fill="#263FEC" p-id="1634"></path><path d="M621.1 500.7L444.6 344.4 268.1 500.7c-13.2 11.6-20.7 28.4-20.7 46v363.5h394.4V546.6c0-17.6-7.5-34.3-20.7-45.9z" fill="#3FABFB" p-id="1635"></path><path d="M641.8 587.3v-40.7c0-17.6-7.5-34.3-20.7-46L444.6 344.4 268.1 500.7c-13.2 11.6-20.7 28.4-20.7 46v40.7h394.4z" fill="#2784FA" p-id="1636"></path><path d="M529.7 544.3m-76.6 0a76.6 76.6 0 1 0 153.2 0 76.6 76.6 0 1 0-153.2 0Z" fill="#FADE2F" p-id="1637"></path><path d="M595.3 910.2H438.7v-178c0-3 2.4-5.4 5.4-5.4H590c3 0 5.4 2.4 5.4 5.4v178z" fill="#FADE2F" p-id="1638"></path><path d="M503.9 128h50.8l19 29.2H613v91.4h-73.6L525.5 213h-21.6z" fill="#E74B26" p-id="1639"></path><path d="M554.7 128h-50.8v85h21.6l13.9 35.6H577v-91.4z" fill="#FB6F22" p-id="1640"></path><path d="M577 179.3v-22.1L554.7 128h-50.8v51.3z" fill="#FE5E21" p-id="1641"></path></svg>